<?xml version="1.0" encoding="iso-8859-1"?>
<!-- Uploaded to: SVG Repo, www.svgrepo.com, Generator: SVG Repo Mixer Tools -->
<svg fill="#000000" height="800px" width="800px" version="1.1" id="Layer_1" xmlns="http://www.w3.org/2000/svg" xmlns:xlink="http://www.w3.org/1999/xlink" 
	 viewBox="0 0 512 512" xml:space="preserve">
<g>
	<g>
		<path d="M179.04,367.699h-9.086v-77.495c0-4.428-3.589-8.017-8.017-8.017H93.528c-4.427,0-8.017,3.588-8.017,8.017v77.495h-9.086
			c-4.427,0-8.017,3.588-8.017,8.017c0,4.428,3.589,8.017,8.017,8.017H179.04c4.427,0,8.017-3.588,8.017-8.017
			C187.056,371.288,183.467,367.699,179.04,367.699z M153.921,367.699h-52.376v-69.478h52.376V367.699z"/>
	</g>
</g>
<g>
	<g>
		<path d="M435.574,367.699h-9.086v-77.495c0-4.428-3.589-8.017-8.017-8.017h-68.409c-4.427,0-8.017,3.588-8.017,8.017v77.495
			h-9.086c-4.427,0-8.017,3.588-8.017,8.017c0,4.428,3.589,8.017,8.017,8.017h102.614c4.427,0,8.017-3.588,8.017-8.017
			C443.591,371.288,440.001,367.699,435.574,367.699z M410.455,367.699h-52.376v-69.478h52.376V367.699z"/>
	</g>
</g>
<g>
	<g>
		<path d="M503.983,495.967h-34.739V271.795c19.459-3.757,34.205-20.909,34.205-41.448v-42.756c0-1.236-0.294-2.481-0.847-3.585
			L451.295,81.392c-1.357-2.715-4.133-4.432-7.17-4.432H306.772v-9.62h60.392c4.427,0,8.017-3.588,8.017-8.017V8.017
			c0-4.428-3.589-8.017-8.017-8.017H332.96c-4.427,0-8.017,3.588-8.017,8.017c0,4.428,3.589,8.017,8.017,8.017h26.188v35.273
			H152.852V16.033h137.353c4.427,0,8.017-3.588,8.017-8.017c0-4.428-3.589-8.017-8.017-8.017h-145.37
			c-4.427,0-8.017,3.588-8.017,8.017v51.307c0,4.428,3.589,8.017,8.017,8.017h60.392v9.086c0,0.181,0.015,0.357,0.027,0.534H67.875
			c-3.037,0-5.813,1.716-7.17,4.432L9.398,184.006c-0.553,1.104-0.847,2.349-0.847,3.585v42.756
			c0,20.54,14.745,37.691,34.205,41.448v112.472c0,4.428,3.589,8.017,8.017,8.017s8.017-3.588,8.017-8.017V271.795
			c10.722-2.07,20.008-8.207,26.188-16.74c7.678,10.599,20.145,17.513,34.205,17.513s26.527-6.914,34.205-17.513
			c7.678,10.599,20.145,17.513,34.205,17.513s26.527-6.914,34.205-17.513c7.678,10.599,20.145,17.513,34.205,17.513
			s26.527-6.914,34.205-17.513c7.678,10.599,20.145,17.513,34.205,17.513c14.059,0,26.527-6.914,34.205-17.513
			c7.678,10.599,20.145,17.513,34.205,17.513c14.059,0,26.527-6.914,34.205-17.513c6.18,8.532,15.466,14.669,26.188,16.74V444.66
			h-9.62v-10.154c0-13.261-10.788-24.05-24.05-24.05h-70.547c-13.262,0-24.05,10.789-24.05,24.05v10.154h-9.62V290.205
			c0-4.428-3.589-8.017-8.017-8.017H204.693c-4.427,0-8.017,3.588-8.017,8.017V444.66h-9.62v-10.154
			c0-13.261-10.788-24.05-24.05-24.05H92.459c-13.262,0-24.05,10.789-24.05,24.05v10.154h-9.62v-17.637
			c0-4.428-3.589-8.017-8.017-8.017s-8.017,3.588-8.017,8.017v68.944H8.017c-4.427,0-8.017,3.588-8.017,8.017
			C0,508.412,3.589,512,8.017,512h495.967c4.427,0,8.017-3.588,8.017-8.017C512,499.555,508.411,495.967,503.983,495.967z
			 M76.96,230.347c0,14.441-11.748,26.188-26.188,26.188c-14.44,0-26.188-11.747-26.188-26.188v-34.739H76.96V230.347z
			 M79.199,179.574h-49.66l43.29-86.58h35.23L79.199,179.574z M145.37,230.347c0,14.441-11.748,26.188-26.188,26.188
			s-26.188-11.747-26.188-26.188v-34.739h52.376V230.347z M146.594,179.574H96.1l28.86-86.58h36.064L146.594,179.574z
			 M213.779,230.347c0,14.441-11.748,26.188-26.188,26.188s-26.188-11.747-26.188-26.188v-34.739h52.376V230.347z M213.779,179.574
			H162.85l14.43-86.58h36.498V179.574z M282.188,230.347c0,14.441-11.748,26.188-26.188,26.188s-26.188-11.747-26.188-26.188
			v-34.739h52.376V230.347z M282.188,179.574h-52.376v-86.58h52.376V179.574z M290.739,76.96h-0.534h-68.409h-0.561
			c0.012-0.177,0.027-0.354,0.027-0.534V67.34h69.478V76.96z M84.443,434.505c0-4.421,3.596-8.017,8.017-8.017h70.547
			c4.421,0,8.017,3.596,8.017,8.017v10.154h-86.58V434.505z M196.676,495.967H58.789v-35.273h137.887V495.967z M299.29,495.967
			h-86.58V298.221h86.58V495.967z M340.977,434.505c0-4.421,3.596-8.017,8.017-8.017h70.547c4.421,0,8.017,3.596,8.017,8.017v10.154
			h-86.58V434.505z M453.211,495.967H315.324v-35.273h137.887V495.967z M298.221,92.994h36.498l14.43,86.58h-50.928V92.994z
			 M350.597,230.347c0,14.441-11.748,26.188-26.188,26.188s-26.188-11.747-26.188-26.188v-34.739h52.376V230.347z M350.974,92.994
			h36.065l28.86,86.58h-50.496L350.974,92.994z M419.006,230.347c0,14.441-11.748,26.188-26.188,26.188
			c-14.44,0-26.188-11.747-26.188-26.188v-34.739h52.376V230.347z M403.941,92.994h35.23l43.29,86.58h-49.66L403.941,92.994z
			 M435.04,230.347v-34.739h52.376v34.739c0,14.441-11.748,26.188-26.188,26.188C446.788,256.534,435.04,244.787,435.04,230.347z"/>
	</g>
</g>
</svg>